<svg width="30" height="30" viewBox="0 0 200 200" fill="none" xmlns="http://www.w3.org/2000/svg">
<circle cx="100" cy="100" r="95" stroke="#FF0029" stroke-width="10"/>
<path d="M88.6392 98.7669L55.5933 65.6234C53.1201 63.1429 53.2936 59.0787 55.9692 56.818C58.3604 54.7977 61.9039 54.9591 64.1015 57.1884L93.1933 86.6997C96.4932 90.0472 101.877 90.1002 105.243 86.8182L137.287 55.5669C139.344 53.5604 142.605 53.4949 144.742 55.4171C147.059 57.502 147.16 61.1016 144.964 63.3134L111.132 97.3832C109.074 99.4555 109.106 102.81 111.204 104.842L141.346 134.04C143.857 136.472 143.907 140.484 141.458 142.979C139.022 145.46 135.037 145.498 132.554 143.065L101.775 112.906C100.328 111.488 98.0076 111.506 96.5827 112.946L66.0413 143.804C63.7087 146.161 59.9441 146.294 57.4513 144.107C54.7261 141.717 54.5905 137.52 57.1558 134.958L88.634 103.526C89.949 102.213 89.9513 100.083 88.6392 98.7669Z" fill="#FF0000" stroke="black"/>
</svg>
